# xmcd CD database file
#
# Track frame offsets:
#	183
#	13730
#	26088
#	40698
#	53583
#	70160
#	86805
#	102638
#	122083
#	139213
#	156748
#	173663
#	192473
#	209520
#	226928
#	240805
#	258285
#	273813
#	290868
#	306625
#	320288
#	334340
#
# Disc length: 4608 seconds
#
# Revision: 0
# Processed by: cddbd v1.4PL0 Copyright (c) Steve Scherf et al.
# Submitted via: CDex 1.50
#
DISCID=4a11fe16
DTITLE=The Original Dixieland Jazz Band - 1919-1920
DYEAR=1990
DGENRE=Jazz
TTITLE0=The Original Dixieland Jazz Band - Barnyard blues
TTITLE1=The Original Dixieland Jazz Band - At the Jazz band ball
TTITLE2=The Original Dixieland Jazz Band - Ostrich walk
TTITLE3=The Original Dixieland Jazz Band - Sensation rag
TTITLE4=The Original Dixieland Jazz Band - Look at' em doing it
TTITLE5=The Original Dixieland Jazz Band - Tiger rag
TTITLE6=The Original Dixieland Jazz Band - Satanic blues
TTITLE7=The Original Dixieland Jazz Band - 'lasses candy
TTITLE8=The Original Dixieland Jazz Band - My baby's arms
TTITLE9=The Original Dixieland Jazz Band - Tell me
TTITLE10=The Original Dixieland Jazz Band - I've got my captain working for me now
TTITLE11=The Original Dixieland Jazz Band - I'm forever blowing bubbles
TTITLE12=The Original Dixieland Jazz Band - Mammy o' mine
TTITLE13=The Original Dixieland Jazz Band - I've lost my heart in Dixieland
TTITLE14=The Original Dixieland Jazz Band - Sphinx
TTITLE15=The Original Dixieland Jazz Band - Alice blue gown
TTITLE16=The Original Dixieland Jazz Band - Soudan
TTITLE17=The Ciro's Club Coon Orchestra - Saint-Louis blues
TTITLE18=Dan and Harvey's Jazz Band - Hindustan
TTITLE19=Billy Arnold's Novelty Jazz Band - Stop it
TTITLE20=Billy Arnold's Novelty Jazz Band - Left alone again blues
TTITLE21=The Original Capitol Orchestra - Tiger Rag
EXTD=YEAR: 1990
EXTT0=
EXTT1=
EXTT2=
EXTT3=
EXTT4=
EXTT5=
EXTT6=
EXTT7=
EXTT8=
EXTT9=
EXTT10=
EXTT11=
EXTT12=
EXTT13=
EXTT14=
EXTT15=
EXTT16=
EXTT17=
EXTT18=
EXTT19=
EXTT20=
EXTT21=
PLAYORDER=
